<?xml version="1.0" encoding="utf-8"?>
<!-- Generator: Adobe Illustrator 18.0.0, SVG Export Plug-In . SVG Version: 6.00 Build 0)  -->
<!DOCTYPE svg PUBLIC "-//W3C//DTD SVG 1.1//EN" "http://www.w3.org/Graphics/SVG/1.1/DTD/svg11.dtd">

<svg width="131" height="77" viewBox="0 0 131 77" fill="none" xmlns="http://www.w3.org/2000/svg">
<g filter="url(#filter0_d_18_12)">
<rect x="2" y="1" width="127" height="73" rx="8" fill="#B527F8" shape-rendering="crispEdges"/>
<path d="M31.5881 50.5H27.3949L36.8168 24.3182H41.3807L50.8026 50.5H46.6094L39.2074 29.0739H39.0028L31.5881 50.5ZM32.2912 40.2472H45.8935V43.571H32.2912V40.2472ZM68.6523 31.196C68.516 29.9858 67.9535 29.0483 66.9648 28.3835C65.9762 27.7102 64.7319 27.3736 63.2319 27.3736C62.158 27.3736 61.229 27.544 60.445 27.8849C59.6609 28.2173 59.0515 28.6776 58.6168 29.2656C58.1907 29.8452 57.9776 30.5057 57.9776 31.2472C57.9776 31.8693 58.1225 32.4062 58.4123 32.858C58.7106 33.3097 59.0984 33.6889 59.5756 33.9957C60.0614 34.294 60.5813 34.5455 61.1353 34.75C61.6893 34.946 62.2219 35.108 62.7333 35.2358L65.2901 35.9006C66.1254 36.1051 66.9819 36.3821 67.8597 36.7315C68.7376 37.081 69.5515 37.5412 70.3015 38.1122C71.0515 38.6832 71.6566 39.3906 72.1168 40.2344C72.5856 41.0781 72.82 42.0881 72.82 43.2642C72.82 44.7472 72.4364 46.0639 71.6694 47.2145C70.9109 48.3651 69.8072 49.2727 68.3583 49.9375C66.918 50.6023 65.1751 50.9347 63.1296 50.9347C61.1694 50.9347 59.4734 50.6236 58.0415 50.0014C56.6097 49.3793 55.489 48.4972 54.6793 47.3551C53.8697 46.2045 53.4222 44.8409 53.337 43.2642H57.3001C57.3768 44.2102 57.6836 44.9986 58.2205 45.6293C58.766 46.2514 59.4606 46.7159 60.3043 47.0227C61.1566 47.321 62.0898 47.4702 63.104 47.4702C64.2205 47.4702 65.2134 47.2955 66.0827 46.946C66.9606 46.5881 67.6509 46.0937 68.1538 45.4631C68.6566 44.8239 68.908 44.0781 68.908 43.2259C68.908 42.4503 68.6864 41.8153 68.2433 41.321C67.8086 40.8267 67.2163 40.4176 66.4663 40.0938C65.7248 39.7699 64.8853 39.4844 63.9478 39.2372L60.854 38.3935C58.7575 37.8224 57.0955 36.983 55.8683 35.875C54.6495 34.767 54.0401 33.3011 54.0401 31.4773C54.0401 29.9687 54.4492 28.652 55.2674 27.527C56.0856 26.402 57.1935 25.5284 58.5913 24.9062C59.989 24.2756 61.5657 23.9602 63.3214 23.9602C65.0941 23.9602 66.658 24.2713 68.0131 24.8935C69.3768 25.5156 70.4506 26.3722 71.2347 27.4631C72.0188 28.5455 72.4279 29.7898 72.462 31.196H68.6523ZM99.2862 32.8324H95.2976C95.1442 31.9801 94.8587 31.2301 94.4411 30.5824C94.0234 29.9347 93.5121 29.3849 92.907 28.9332C92.3018 28.4815 91.6243 28.1406 90.8743 27.9105C90.1328 27.6804 89.3445 27.5653 88.5092 27.5653C87.0007 27.5653 85.6499 27.9446 84.4567 28.7031C83.272 29.4616 82.3345 30.5739 81.6442 32.0398C80.9624 33.5057 80.6214 35.2955 80.6214 37.4091C80.6214 39.5398 80.9624 41.3381 81.6442 42.804C82.3345 44.2699 83.2763 45.3778 84.4695 46.1278C85.6626 46.8778 87.005 47.2528 88.4964 47.2528C89.3232 47.2528 90.1072 47.142 90.8487 46.9205C91.5987 46.6903 92.2763 46.3537 92.8814 45.9105C93.4865 45.4673 93.9979 44.9261 94.4155 44.2869C94.8416 43.6392 95.1357 42.8977 95.2976 42.0625L99.2862 42.0753C99.0732 43.3622 98.6598 44.5469 98.0462 45.6293C97.4411 46.7031 96.6612 47.6321 95.7067 48.4162C94.7607 49.1918 93.6783 49.7926 92.4595 50.2188C91.2408 50.6449 89.9112 50.858 88.4709 50.858C86.2038 50.858 84.1839 50.321 82.4112 49.2472C80.6385 48.1648 79.2408 46.6179 78.218 44.6065C77.2038 42.5952 76.6967 40.196 76.6967 37.4091C76.6967 34.6136 77.2081 32.2145 78.2308 30.2116C79.2536 28.2003 80.6513 26.6577 82.424 25.5838C84.1967 24.5014 86.2124 23.9602 88.4709 23.9602C89.8601 23.9602 91.1555 24.1605 92.3572 24.5611C93.5675 24.9531 94.6541 25.5327 95.6172 26.2997C96.5803 27.0582 97.3771 27.9872 98.0078 29.0866C98.6385 30.1776 99.0646 31.4261 99.2862 32.8324Z" fill="white"/>
</g>
<defs>
<filter id="filter0_d_18_12" x="0" y="0" width="131" height="77" filterUnits="userSpaceOnUse" color-interpolation-filters="sRGB">
<feFlood flood-opacity="0" result="BackgroundImageFix"/>
<feColorMatrix in="SourceAlpha" type="matrix" values="0 0 0 0 0 0 0 0 0 0 0 0 0 0 0 0 0 0 127 0" result="hardAlpha"/>
<feOffset dy="1"/>
<feGaussianBlur stdDeviation="1"/>
<feComposite in2="hardAlpha" operator="out"/>
<feColorMatrix type="matrix" values="0 0 0 0 0 0 0 0 0 0 0 0 0 0 0 0 0 0 0.05 0"/>
<feBlend mode="normal" in2="BackgroundImageFix" result="effect1_dropShadow_18_12"/>
<feBlend mode="normal" in="SourceGraphic" in2="effect1_dropShadow_18_12" result="shape"/>
</filter>
</defs>
</svg>
